<svg xmlns="http://www.w3.org/2000/svg" width="183" height="29"><path fill-rule="evenodd" clip-rule="evenodd" d="M181.551 28.124c-.504.491-1.156.737-1.953.737-.795 0-1.439-.246-1.932-.737-.492-.49-.736-1.135-.736-1.932v-7.45c0-1.327-.473-2.456-1.414-3.386-.943-.929-2.078-1.395-3.406-1.395s-2.457.466-3.385 1.395c-.932.93-1.395 2.059-1.395 3.386 0 1.329.463 2.465 1.395 3.406.445.453.939.79 1.477 1.025a3.507 3.507 0 0 0-1.684 2.988c0 .966.391 1.839 1.02 2.475-1.768-.424-3.322-1.299-4.656-2.645-1.953-1.964-2.93-4.381-2.93-7.25 0-2.867.977-5.277 2.93-7.229 1.951-1.952 4.361-2.927 7.229-2.927 2.869 0 5.285.975 7.25 2.927s2.947 4.362 2.947 7.229v7.45c-.001.798-.253 1.443-.757 1.933zm-26.68.737c-.795 0-1.439-.246-1.932-.737-.49-.49-.736-1.135-.736-1.932V11.254c0-.797.246-1.441.736-1.932.492-.491 1.137-.736 1.932-.736 1.807 0 2.711.89 2.711 2.668v14.938c0 .797-.254 1.441-.758 1.932-.504.491-1.154.737-1.953.737zm-.008-23.088c-.74 0-1.377-.266-1.912-.799-.531-.533-.799-1.17-.799-1.91s.268-1.376.799-1.91c.535-.533 1.172-.8 1.912-.8s1.377.267 1.91.8c.533.534.801 1.17.801 1.91s-.268 1.377-.801 1.91a2.601 2.601 0 0 1-1.91.799zm-17.437 23.088c-2.842 0-5.246-.982-7.211-2.947-1.967-1.966-2.947-4.368-2.947-7.212 0-2.866.977-5.282 2.928-7.249 1.951-1.966 4.361-2.947 7.23-2.947.795 0 1.447.252 1.951.756s.756 1.156.756 1.952-.252 1.44-.756 1.932c-.504.493-1.156.738-1.951.738-1.33 0-2.457.471-3.387 1.414-.93.941-1.395 2.077-1.395 3.404 0 1.329.465 2.458 1.395 3.387.93.93 2.057 1.394 3.387 1.394 1.326 0 2.463-.464 3.406-1.394.941-.929 1.414-2.058 1.414-3.387V3.087c0-.77.252-1.408.756-1.912s1.143-.757 1.912-.757c.797 0 1.447.246 1.951.736.504.493.756 1.136.756 1.932v15.615c0 2.844-.988 5.246-2.967 7.212-1.978 1.966-4.386 2.948-7.228 2.948zM122.91 15.715l-5.1 4.979c-.584.558-1.209.837-1.873.837-.742 0-1.387-.279-1.932-.837s-.816-1.207-.816-1.952c0-.663.293-1.287.877-1.871l2.869-2.828a6.58 6.58 0 0 0-1.035-.081c-1.33 0-2.459.466-3.387 1.395-.93.93-1.395 2.059-1.395 3.386 0 1.329.465 2.465 1.395 3.406.928.943 2.057 1.414 3.387 1.414h4.396c.797 0 1.439.246 1.932.738.492.491.736 1.134.736 1.932 0 .797-.244 1.448-.736 1.952s-1.135.757-1.932.757H115.9c-2.869 0-5.281-.982-7.232-2.949-1.951-1.964-2.928-4.381-2.928-7.25 0-2.867.977-5.277 2.928-7.229s4.363-2.927 7.232-2.927c2.893 0 5.35 1.035 7.367 3.105.531.559.797 1.17.797 1.833 0 .876-.384 1.606-1.154 2.19zM98.568 28.861c-.797 0-1.439-.246-1.932-.737-.492-.49-.736-1.135-.736-1.932v-9.043c0-.903-.313-1.659-.938-2.271-.623-.611-1.387-.917-2.291-.917-.877 0-1.632.313-2.269.937-.637.625-.956 1.375-.956 2.251v9.043c0 .797-.245 1.441-.737 1.932-.481.481-1.109.727-1.884.737h-.047c-.775-.011-1.403-.256-1.885-.737-.492-.49-.737-1.135-.737-1.932v-9.043c0-.876-.319-1.626-.955-2.251-.638-.623-1.394-.937-2.271-.937-.903 0-1.668.306-2.291.917-.625.611-.937 1.367-.937 2.271v9.043c0 .797-.245 1.441-.736 1.932-.492.491-1.135.737-1.932.737s-1.448-.246-1.952-.737c-.506-.49-.758-1.135-.758-1.932v-9.043c0-2.416.83-4.448 2.491-6.095 1.658-1.646 3.697-2.469 6.114-2.469 2.096 0 4.252.674 5.873 2.027 1.62-1.354 3.774-2.027 5.87-2.027 2.418 0 4.457.822 6.115 2.469 1.66 1.646 2.49 3.679 2.49 6.095v9.043c0 .797-.252 1.441-.758 1.932-.503.491-1.154.737-1.951.737zm-37.812-2.669c0 .797-.252 1.441-.756 1.932-.506.491-1.155.737-1.952.737s-1.441-.246-1.932-.737c-.493-.49-.738-1.135-.738-1.932v-9.043h-.008c0-.876-.312-1.626-.935-2.251-.625-.623-1.376-.937-2.25-.937-.903 0-1.668.306-2.291.917-.625.611-.937 1.367-.937 2.271v9.043c0 .797-.252 1.441-.757 1.932-.506.491-1.155.737-1.952.737s-1.441-.246-1.932-.737c-.493-.49-.738-1.135-.738-1.932v-9.043c0-2.416.83-4.448 2.49-6.095s3.698-2.469 6.116-2.469c2.416 0 4.455.822 6.114 2.469s2.489 3.679 2.489 6.095h-.032v9.043h.001zM29.037 14.996c1.167.154 2.121.316 2.86.485 2.515.558 4.311 1.322 5.388 2.296 1.075.972 1.615 2.477 1.615 4.149 0 2.113-.715 3.867-2.141 5.105-1.426 1.239-3.378 1.857-5.854 1.857h-6.38c-1.115 0-1.938-.181-2.471-.545-.531-.362-.796-1.033-.796-1.798 0-.792.229-1.381.689-1.771.461-.389 1.164-.584 2.11-.584h5.894c1.361 0 2.363-.167 3.006-.504.641-.338.961-.84.961-1.566 0-.585-.235-1.246-.709-1.621-.473-.376-1.195-.655-2.169-.837a86.447 86.447 0 0 0-2.276-.351c-2.101-.311-3.526-.628-4.279-.953-1.05-.479-1.812-1.079-2.284-1.799-.474-.72-.711-1.649-.711-2.792 0-1.568.546-2.822 1.635-3.763 1.088-.94 2.555-1.411 4.396-1.411h5.892c1.401 0 2.41.168 3.025.506.616.338.923.882.923 1.635 0 .713-.217 1.396-.651 1.695-.434.297-1.191.447-2.266.447h-5.66c-.83 0-1.429.083-1.8.252-.369.168-.554.44-.554.816.001.601.871.831 2.607 1.052zM9.155 28.861c-2.445 0-4.488-.823-6.135-2.47C1.372 24.745.549 22.699.549 20.256V6.554c0-.796.246-1.448.738-1.952.491-.504 1.135-.758 1.932-.758s1.448.254 1.952.758.756 1.156.756 1.952v2.061h9.123c.796 0 1.439.245 1.932.736.491.492.736 1.136.736 1.932 0 1.807-.89 2.708-2.668 2.708H5.927v6.267c0 .903.312 1.666.937 2.291.623.624 1.388.935 2.291.935.901 0 1.66-.311 2.271-.935.609-.625.915-1.388.915-2.291v-.359c0-.77.259-1.407.778-1.911.518-.505 1.16-.757 1.932-.757.77 0 1.408.252 1.912.757.504.504.756 1.142.756 1.911v.359c0 2.416-.823 4.455-2.469 6.114-1.647 1.659-3.679 2.489-6.095 2.489z"/><circle fill-rule="evenodd" clip-rule="evenodd" fill="#90F1F4" cx="172.252" cy="26.162" r="2.836"/><circle fill-rule="evenodd" clip-rule="evenodd" fill="#90F1F4" cx="66.53" cy="19.328" r="2.836"/></svg>